<!-- icon666.com - MILLIONS vector ICONS FREE --><svg version="1.1" id="Layer_1" xmlns="http://www.w3.org/2000/svg" xmlns:xlink="http://www.w3.org/1999/xlink" x="0px" y="0px" viewBox="0 0 64 64" enable-background="new 0 0 64 64" xml:space="preserve"><g id="Dish_2_"><path d="M63,48.0248985h-62c-0.5522001,0-1,0.4472008-1,1c0,0.5527,0.4478,1,1,1h62c0.5522995,0,1-0.4473,1-1 C64,48.4720993,63.5522995,48.0248985,63,48.0248985z" fill="#000000" style="fill: rgb(216, 127, 61);"></path><path d="M3.4893007,45.4155006h55.7982979c0.2666016,0,0.5220032-0.1063995,0.7095032-0.2959023 c0.1879997-0.1884995,0.2924995-0.4452972,0.2904968-0.7118988c-0.0940971-12.8087997-10.6288986-23.4619999-24.2922974-25.4473 c0.0643005-0.2901001,0.1048012-0.5861988,0.1048012-0.8857002c0-2.2607994-1.8393021-4.0995998-4.1001015-4.0995998 c-2.2607002,0-4.1000996,1.8388004-4.1000996,4.0995998c0,0.2490005,0.0307999,0.4948997,0.0755081,0.7380009 C13.7371006,20.3332005,2.5867007,31.2280006,2.4893007,44.4076996c-0.0020001,0.2666016,0.1025,0.5233994,0.2904999,0.7118988 C2.9673007,45.3091011,3.2227008,45.4155006,3.4893007,45.4155006z M29.9731998,18.6245003 c-0.048399-0.1777-0.0732994-0.3633003-0.0732994-0.5498009c0-1.1581993,0.9419003-2.0995998,2.1000996-2.0995998 s2.1001015,0.9414005,2.1001015,2.0995998c0,0.1865005-0.0249023,0.3721008-0.0732002,0.5498009H29.9731998z M31.3876991,20.6245003c14.3578987,0,26.1817093,10.1338005,26.8692017,22.7910004H4.5205007 C5.2080007,30.7583008,17.0312996,20.6245003,31.3876991,20.6245003z" fill="#000000" style="fill: rgb(216, 127, 61);"></path><path d="M40.0946999,26.4360008C39.5761986,26.2446003,39.0014992,26.5112,38.8111,27.0298004 c-0.1899986,0.5184994,0.0755997,1.0926991,0.5942001,1.2831993c4.6928978,1.7226009,7.589798,4.2098999,10.3330002,8.8690987 c0.1865005,0.3174019,0.5200005,0.4932022,0.8628006,0.4932022c0.1723976,0,0.3471985-0.045002,0.5063095-0.1387024 c0.4760895-0.2792969,0.6347885-0.8925972,0.3544884-1.3681984C48.4966011,31.1303005,45.2030983,28.3110008,40.0946999,26.4360008 z" fill="#000000" style="fill: rgb(216, 127, 61);"></path></g></svg>