<svg width="613" height="136" viewBox="0 0 613 136" fill="none" xmlns="http://www.w3.org/2000/svg">
<g clip-path="url(#clip0_37_2)">
<path d="M201.594 87.8125C199.24 89.6875 196.49 90.625 193.344 90.625C185.323 90.625 181.312 85.6146 181.312 75.5938C181.312 70.4479 182.448 66.5417 184.719 63.875C186.99 61.1875 190.333 59.8438 194.75 59.8438C197 59.8438 199.281 60.0833 201.594 60.5625C201.469 59.875 201.406 58.1458 201.406 55.375V47.75L196.469 47V45.5938H206.594V87.8125L210.219 88.5938V90H201.969L201.594 87.8125ZM186.938 75.5938C186.938 79.5521 187.604 82.5104 188.938 84.4688C190.271 86.4062 192.312 87.375 195.062 87.375C197.417 87.375 199.531 86.9688 201.406 86.1562V62.9375C199.552 62.5833 197.438 62.4062 195.062 62.4062C189.646 62.4062 186.938 66.8021 186.938 75.5938ZM219.125 75.2188V75.7812C219.125 78.6562 219.438 80.8958 220.062 82.5C220.708 84.0833 221.688 85.2917 223 86.125C224.333 86.9583 226.073 87.375 228.219 87.375C229.344 87.375 230.677 87.2812 232.219 87.0938C233.76 86.9062 235.031 86.6979 236.031 86.4688V88.2188C235.031 88.8646 233.667 89.4271 231.938 89.9062C230.229 90.3854 228.479 90.625 226.688 90.625C222.125 90.625 218.781 89.3958 216.656 86.9375C214.552 84.4792 213.5 80.5312 213.5 75.0938C213.5 69.9688 214.573 66.1458 216.719 63.625C218.865 61.1042 221.927 59.8438 225.906 59.8438C233.427 59.8438 237.188 64.1146 237.188 72.6562V75.2188H219.125ZM225.906 62.3438C223.74 62.3438 222.073 63.2188 220.906 64.9688C219.76 66.7188 219.188 69.3021 219.188 72.7188H231.75C231.75 68.9896 231.271 66.3333 230.312 64.75C229.354 63.1458 227.885 62.3438 225.906 62.3438ZM250.906 87.8125L255.938 88.5938V90H240.719V88.5938L245.719 87.8125V47.75L240.719 47V45.5938H250.906V87.8125ZM269.094 51.0312C269.094 51.9479 268.76 52.7396 268.094 53.4062C267.427 54.0729 266.625 54.4062 265.688 54.4062C264.771 54.4062 263.979 54.0729 263.312 53.4062C262.646 52.7396 262.312 51.9479 262.312 51.0312C262.312 50.0938 262.646 49.2917 263.312 48.625C263.979 47.9583 264.771 47.625 265.688 47.625C266.625 47.625 267.427 47.9583 268.094 48.625C268.76 49.2917 269.094 50.0938 269.094 51.0312ZM268.781 87.8125L273.812 88.5938V90H258.594V88.5938L263.594 87.8125V62.8125L259.438 62.0312V60.625H268.781V87.8125ZM276.781 90V88.5938L292.906 63.125H286C284.833 63.125 283.708 63.2292 282.625 63.4375C281.542 63.625 280.792 63.8854 280.375 64.2188L279.406 68.4375H277.938V60.625H299.625V62.1562L283.5 87.5H292.094C293.281 87.5 294.531 87.3646 295.844 87.0938C297.156 86.8021 298.083 86.4479 298.625 86.0312L300.219 79.875H301.688L300.906 90H276.781ZM315.344 51.0312C315.344 51.9479 315.01 52.7396 314.344 53.4062C313.677 54.0729 312.875 54.4062 311.938 54.4062C311.021 54.4062 310.229 54.0729 309.562 53.4062C308.896 52.7396 308.562 51.9479 308.562 51.0312C308.562 50.0938 308.896 49.2917 309.562 48.625C310.229 47.9583 311.021 47.625 311.938 47.625C312.875 47.625 313.677 47.9583 314.344 48.625C315.01 49.2917 315.344 50.0938 315.344 51.0312ZM315.031 87.8125L320.062 88.5938V90H304.844V88.5938L309.844 87.8125V62.8125L305.688 62.0312V60.625H315.031V87.8125ZM350.875 75.1562C350.875 85.4688 346.292 90.625 337.125 90.625C332.708 90.625 329.375 89.3021 327.125 86.6562C324.875 84.0104 323.75 80.1771 323.75 75.1562C323.75 70.1979 324.875 66.4062 327.125 63.7812C329.375 61.1562 332.792 59.8438 337.375 59.8438C341.833 59.8438 345.198 61.1354 347.469 63.7188C349.74 66.2812 350.875 70.0938 350.875 75.1562ZM345.25 75.1562C345.25 70.6562 344.594 67.3958 343.281 65.375C341.969 63.3542 339.917 62.3438 337.125 62.3438C334.396 62.3438 332.417 63.3125 331.188 65.25C329.979 67.1875 329.375 70.4896 329.375 75.1562C329.375 79.8854 329.99 83.2396 331.219 85.2188C332.469 87.1771 334.438 88.1562 337.125 88.1562C339.875 88.1562 341.917 87.1354 343.25 85.0938C344.583 83.0521 345.25 79.7396 345.25 75.1562ZM375.906 81.75C375.906 84.6667 374.979 86.875 373.125 88.375C371.292 89.875 368.573 90.625 364.969 90.625C363.51 90.625 361.896 90.4688 360.125 90.1562C358.375 89.8646 357 89.5312 356 89.1562V81.9375H357.406L358.938 86.0312C360.5 87.4479 362.531 88.1562 365.031 88.1562C369.073 88.1562 371.094 86.4271 371.094 82.9688C371.094 80.4271 369.5 78.6146 366.312 77.5312L363.531 76.625C361.427 75.9375 359.896 75.2396 358.938 74.5312C357.979 73.8229 357.24 72.9583 356.719 71.9375C356.198 70.8958 355.938 69.6458 355.938 68.1875C355.938 65.6042 356.812 63.5729 358.562 62.0938C360.333 60.5938 362.719 59.8438 365.719 59.8438C367.865 59.8438 370.552 60.1667 373.781 60.8125V67.2188H372.312L371 63.8125C369.896 62.8333 368.156 62.3438 365.781 62.3438C364.094 62.3438 362.802 62.7604 361.906 63.5938C361.031 64.4271 360.594 65.5521 360.594 66.9688C360.594 68.1562 360.99 69.1562 361.781 69.9688C362.594 70.7812 363.812 71.4583 365.438 72C368.5 73.0417 370.5 73.8021 371.438 74.2812C372.375 74.7604 373.167 75.3542 373.812 76.0625C374.479 76.75 374.99 77.5417 375.344 78.4375C375.719 79.3333 375.906 80.4375 375.906 81.75ZM386.375 75.2188V75.7812C386.375 78.6562 386.688 80.8958 387.312 82.5C387.958 84.0833 388.938 85.2917 390.25 86.125C391.583 86.9583 393.323 87.375 395.469 87.375C396.594 87.375 397.927 87.2812 399.469 87.0938C401.01 86.9062 402.281 86.6979 403.281 86.4688V88.2188C402.281 88.8646 400.917 89.4271 399.188 89.9062C397.479 90.3854 395.729 90.625 393.938 90.625C389.375 90.625 386.031 89.3958 383.906 86.9375C381.802 84.4792 380.75 80.5312 380.75 75.0938C380.75 69.9688 381.823 66.1458 383.969 63.625C386.115 61.1042 389.177 59.8438 393.156 59.8438C400.677 59.8438 404.438 64.1146 404.438 72.6562V75.2188H386.375ZM393.156 62.3438C390.99 62.3438 389.323 63.2188 388.156 64.9688C387.01 66.7188 386.438 69.3021 386.438 72.7188H399C399 68.9896 398.521 66.3333 397.562 64.75C396.604 63.1458 395.135 62.3438 393.156 62.3438ZM430.812 75.2188V75.7812C430.812 78.6562 431.125 80.8958 431.75 82.5C432.396 84.0833 433.375 85.2917 434.688 86.125C436.021 86.9583 437.76 87.375 439.906 87.375C441.031 87.375 442.365 87.2812 443.906 87.0938C445.448 86.9062 446.719 86.6979 447.719 86.4688V88.2188C446.719 88.8646 445.354 89.4271 443.625 89.9062C441.917 90.3854 440.167 90.625 438.375 90.625C433.812 90.625 430.469 89.3958 428.344 86.9375C426.24 84.4792 425.188 80.5312 425.188 75.0938C425.188 69.9688 426.26 66.1458 428.406 63.625C430.552 61.1042 433.615 59.8438 437.594 59.8438C445.115 59.8438 448.875 64.1146 448.875 72.6562V75.2188H430.812ZM437.594 62.3438C435.427 62.3438 433.76 63.2188 432.594 64.9688C431.448 66.7188 430.875 69.3021 430.875 72.7188H443.438C443.438 68.9896 442.958 66.3333 442 64.75C441.042 63.1458 439.573 62.3438 437.594 62.3438ZM471.875 62.8125L468.531 62.0312V60.625H476.781L476.844 62.3438C477.719 61.5938 478.885 60.9896 480.344 60.5312C481.823 60.0729 483.323 59.8438 484.844 59.8438C488.594 59.8438 491.49 61.1458 493.531 63.75C495.594 66.3542 496.625 70.0938 496.625 74.9688C496.625 79.9479 495.5 83.8021 493.25 86.5312C491.021 89.2604 487.792 90.625 483.562 90.625C481.208 90.625 478.969 90.3958 476.844 89.9375C476.969 91.4375 477.031 92.6146 477.031 93.4688V101.406L482.156 102.156V103.625H468.156V102.156L471.875 101.406V62.8125ZM491 74.9688C491 70.9688 490.344 68 489.031 66.0625C487.74 64.1042 485.771 63.125 483.125 63.125C480.688 63.125 478.656 63.4688 477.031 64.1562V87.625C478.885 87.9792 480.917 88.1562 483.125 88.1562C488.375 88.1562 491 83.7604 491 74.9688ZM508.906 81.625C508.906 85.2083 510.573 87 513.906 87C516.49 87 518.906 86.6771 521.156 86.0312V62.8125L516.719 62.0312V60.625H526.312V87.8125L530.031 88.5938V90H521.469L521.219 87.625C519.74 88.4375 518.031 89.1458 516.094 89.75C514.156 90.3333 512.531 90.625 511.219 90.625C506.219 90.625 503.719 87.75 503.719 82V62.8125L499.969 62.0312V60.625H508.906V81.625ZM541.25 63C542.854 62.0833 544.562 61.3333 546.375 60.75C548.188 60.1458 549.698 59.8438 550.906 59.8438C553.448 59.8438 555.365 60.5833 556.656 62.0625C557.948 63.5417 558.594 65.6875 558.594 68.5V87.8125L562.156 88.5938V90H549.5V88.5938L553.406 87.8125V69.0625C553.406 67.3333 552.979 65.9792 552.125 65C551.292 64 549.99 63.5 548.219 63.5C546.344 63.5 544.042 63.8021 541.312 64.4062V87.8125L545.281 88.5938V90H532.594V88.5938L536.125 87.8125V62.8125L532.594 62.0312V60.625H540.969L541.25 63ZM573.562 90.625C571.562 90.625 570.062 90.0312 569.062 88.8438C568.083 87.6562 567.594 85.9896 567.594 83.8438V63.25H563.75V61.8438L567.656 60.625L570.812 53.9688H572.781V60.625H579.5V63.25H572.781V83.2812C572.781 84.6354 573.083 85.6562 573.688 86.3438C574.312 87.0312 575.125 87.375 576.125 87.375C577.333 87.375 578.802 87.2083 580.531 86.875V88.9062C579.802 89.4062 578.75 89.8125 577.375 90.125C576 90.4583 574.729 90.625 573.562 90.625ZM610.5 75.1562C610.5 85.4688 605.917 90.625 596.75 90.625C592.333 90.625 589 89.3021 586.75 86.6562C584.5 84.0104 583.375 80.1771 583.375 75.1562C583.375 70.1979 584.5 66.4062 586.75 63.7812C589 61.1562 592.417 59.8438 597 59.8438C601.458 59.8438 604.823 61.1354 607.094 63.7188C609.365 66.2812 610.5 70.0938 610.5 75.1562ZM604.875 75.1562C604.875 70.6562 604.219 67.3958 602.906 65.375C601.594 63.3542 599.542 62.3438 596.75 62.3438C594.021 62.3438 592.042 63.3125 590.812 65.25C589.604 67.1875 589 70.4896 589 75.1562C589 79.8854 589.615 83.2396 590.844 85.2188C592.094 87.1771 594.062 88.1562 596.75 88.1562C599.5 88.1562 601.542 87.1354 602.875 85.0938C604.208 83.0521 604.875 79.7396 604.875 75.1562Z" fill="white"/>
<path d="M135.938 59.333C135.938 57.396 134.371 55.829 132.434 55.829H106.372V51.418H132.434C134.371 51.417 135.938 49.852 135.938 47.913C135.938 45.974 134.371 44.409 132.434 44.409H106.372V39.998H132.434C134.371 39.998 135.938 38.43 135.938 36.493C135.938 34.555 134.371 32.989 132.434 32.989H102.868C100.929 32.989 99.3645 34.554 99.3645 36.493V44.409L3.50748 44.409C1.56748 44.409 0.003479 45.975 0.003479 47.913C0.003479 49.851 1.56648 51.417 3.50748 51.417L99.3675 51.417V59.333C99.3675 61.271 100.932 62.837 102.871 62.837H132.437C134.371 62.837 135.938 61.271 135.938 59.333Z" fill="#D87E3F"/>
<path d="M135.735 100.618C136.233 99.228 135.798 97.665 134.642 96.73C106.986 74.216 68.8779 81.645 67.2699 81.974C65.6379 82.309 64.4639 83.74 64.4639 85.406V95.94L3.50488 95.94C1.56488 95.94 0.00088501 97.503 0.00088501 99.444C0.00088501 101.382 1.56388 102.949 3.50488 102.949H132.428C133.917 102.949 135.241 102.014 135.735 100.618ZM71.4809 95.94V88.401C79.1859 87.375 101.378 85.642 120.808 95.94H71.4809Z" fill="#D87E3F"/>
</g>
<defs>
<clipPath id="clip0_37_2">
<rect width="136" height="613" fill="white" transform="matrix(0 1 -1 0 613 0)"/>
</clipPath>
</defs>
</svg>
